<?xml version="1.0" encoding="UTF-8"?><svg id="Capa_1" xmlns="http://www.w3.org/2000/svg" viewBox="0 0 524.84 418.42"><defs><style>.cls-1{fill:#0a0a0a;stroke:#fff;stroke-miterlimit:10;stroke-width:.67px;}.cls-2{fill:#3a3a3a;stroke-width:0px;}</style></defs><path class="cls-1" d="M486.15,317.13c0,.63,0,1.05,0,1.47.11,11.64.23,23.28.34,34.92.04,3.88-.22,7.71-1.31,11.47-.77,2.63-2.4,4.4-4.81,5.56-3.68,1.77-7.65,2.24-11.66,2.33-4.25.1-8.5.05-12.76.08-2.39.02-2.72.28-3.21,2.58-.78,3.66-1.67,7.32-.92,11.09.75,3.75,1.62,7.47,4.16,10.54.94,1.13,1.27,2.46,1.24,3.96-.06,3.65-.01,7.3-.03,10.95,0,.77-.04,1.55-.14,2.31-.32,2.26-1.34,3.28-3.63,3.43-2.1.14-4.21.14-6.31.15-6.44.02-12.89.01-19.33,0-4.8-.01-5.76-1-5.91-5.8-.09-2.83-.4-5.66-.41-8.49,0-1.52.11-3.16.68-4.54,2.9-7.09,3.94-14.46,3.75-22.06-.03-1.32,0-2.64,0-4.11-.74,0-1.28,0-1.83,0-58.72,0-117.44-.01-176.16-.03-.85,0-1.7-.12-2.55-.22-.89-.1-1.43.19-1.39,1.18.14,3.69.12,7.39.47,11.06.36,3.84,1.04,7.65,1.66,11.46.09.59.5,1.19.93,1.64.89.93,1.24,1.96,1.25,3.25.02,3.31.19,6.61.24,9.92.02,1.15-.12,2.32-.28,3.46-.26,1.91-1.07,2.87-3,3.19-1.47.24-2.99.21-4.49.22-7.04.01-14.09,0-21.13-.03-1.45,0-2.93-.03-4.35-.26-1.54-.26-2.65-1.3-2.7-2.88-.14-4.93-.17-9.86-.15-14.78,0-1.47.82-2.58,2.21-3.23.31-.15.67-.47.75-.78.96-3.42,2.11-6.82,2.74-10.31.71-3.92-.35-7.76-1.48-11.52-.31-1.02-1.11-1.34-2.11-1.34-3.14,0-6.27-.01-9.41-.02-4.53,0-8.99-.33-13.34-1.76-5.43-1.78-7.65-5.77-7.94-11.12-.13-2.35-.02-4.72-.01-7.08.01-11.6.03-23.19.04-34.79,0-.25-.04-.51-.07-.99-.68.38-1.26.71-1.84,1.02-9.96,5.32-19.91,10.64-29.87,15.95-.68.36-1.41.66-2.15.86-1.93.52-3.16-.09-3.56-2.07-.48-2.39-.96-4.83-.97-7.25-.07-17.61,8.19-30.11,23.85-37.72,8.33-4.05,16.95-7.52,25.33-11.47,19.73-9.31,38.95-19.59,57.76-30.65,8.78-5.16,15.68-11.96,20.68-20.84,4.47-7.93,9.28-15.66,14.79-22.93,7.64-10.08,17.08-17.82,28.98-22.36,4.18-1.59,8.49-2.76,12.95-3.27,1.79-.21,2.06-.47,2.06-2.54,0-7.95-.05-15.89-.05-23.84,0-3.39-.02-6.79.19-10.17.33-5.3,2.47-9.89,6.13-13.71,2.32-2.41,4.8-4.68,7.28-6.92,3.46-3.13,6.55-6.55,9.06-10.5,6.96-10.96,6.24-23.13-2.13-33.07-7.49-8.9-17.21-11.68-28.47-10.1-6.73.94-12.15,4.13-16.75,9.05-3.52,3.75-7.14,7.43-10.98,10.84-1.77,1.57-4.11,2.6-6.34,3.55-1.57.67-2.84-.11-3.48-1.55-.5-1.14-.4-2.21.48-3.1.57-.57,1.21-1.12,1.91-1.51,4.03-2.25,7.33-5.36,10.52-8.63,2.73-2.79,5.46-5.61,8.42-8.14,5.9-5.04,12.99-7,20.62-7.2,16.05-.42,31,9.99,35.58,25,3.56,11.66.98,22.21-6.5,31.69-3.05,3.86-6.39,7.45-10.27,10.46-5.98,4.65-8.75,10.77-8.78,18.21-.04,10.22,0,20.45-.05,30.67,0,1.09.64,1.13,1.35,1.28,3.48.74,7.05,1.22,10.43,2.28,11.1,3.48,20.19,10.07,27.96,18.63,5.78,6.37,10.14,13.73,14.8,20.89,2.55,3.92,5.14,7.82,7.68,11.75,4.38,6.76,10.46,11.65,17.22,15.81,20.51,12.62,41.87,23.59,63.9,33.31,7.06,3.12,14.06,6.42,20.89,10.01,11.35,5.97,18.61,15.23,21.2,27.94.94,4.62,1.11,9.29.62,13.98-.47,4.4-1.85,5.29-5.89,3.63-2.22-.91-4.35-2.04-6.45-3.2-8.24-4.52-16.46-9.08-24.69-13.62-.26-.14-.53-.25-1.05-.49ZM188.22,338.37h.09c0,5.88,0,11.77,0,17.65,0,1.93-.01,3.87.14,5.79.16,2.08,1.16,3.73,3.19,4.45,1.77.62,3.6,1.37,5.43,1.47,5.96.32,11.93.41,17.89.46.63,0,1.56-.66,1.87-1.25,2.1-4.17,3.29-8.51,2.64-13.29-.42-3.09-.71-6.26-.55-9.36.29-5.66,4.48-9.98,10.1-10.93,5.36-.9,10.56,2,12.83,7.15.69,1.57,1.48,3.11,2.05,4.72.49,1.4,1,2.89,1.02,4.35.03,3-.27,6-.42,9-.12,2.44-.28,4.89-.31,7.33-.02,1.74.42,2.13,2.12,2.18,1.2.04,2.41.04,3.61.04,56.74,0,113.49-.01,170.23-.01,1.07,0,2.14.07,3.21.16,2.12.18,2.62-.17,2.5-2.29-.15-2.83-.23-5.69-.77-8.46-1.39-7.17,1.17-13.34,4.51-19.35.37-.66.92-1.25,1.49-1.76,3.45-3.08,7.44-4.1,11.83-2.56,4.39,1.54,7.01,4.82,7.62,9.39.36,2.7.21,5.48.1,8.22-.19,5.03.18,9.94,2.08,14.68.55,1.37,1.3,1.98,2.75,1.97,3.95-.02,7.91.18,11.85,0,2.85-.12,5.73-.5,8.52-1.13,3-.68,4.77-2.8,5.19-5.88.21-1.57.33-3.16.34-4.75.02-12.63-.08-25.26.05-37.89.03-3.03-1.21-4.86-3.75-6.11-1.97-.96-3.97-1.85-5.89-2.89-33.61-18.17-67.21-36.35-100.8-54.54-11.21-6.07-22.42-12.14-33.59-18.28-1.48-.81-2.71-.9-4.21-.11-8.65,4.57-17.4,8.97-26.01,13.62-32.1,17.34-64.17,34.75-96.24,52.15-6.87,3.72-13.71,7.49-20.57,11.23-1.28.7-2.16,1.52-2.15,3.18.06,7.22.03,14.43.03,21.65Z"/><path class="cls-2" d="M185.33,0c2.15.34,4.36.49,6.46,1.05,14.12,3.74,23.81,12.2,27.33,26.67,2.57,10.58-.21,20.14-6.81,28.67-2.96,3.82-6.28,7.29-9.97,10.4-.62.53-1.24,1.06-1.87,1.59-4.63,3.89-7.09,8.9-7.39,14.9-.2,4.16-.19,8.33-.21,12.49-.03,6.66.03,13.32-.02,19.97,0,1.14.36,1.56,1.46,1.72,4.59.71,9.14,1.55,13.48,3.29,11.47,4.58,20.8,12,28.21,21.77,4.04,5.33,7.56,11.05,11.29,16.61,2.1,3.14,4.23,6.26,6.18,9.5,4.66,7.74,11.12,13.58,18.8,18.16,5.68,3.38,11.39,6.71,17.09,10.07.32.19.64.39,1.06.65-6.51,7.64-11.59,16.13-16.77,24.66-.41-.2-.79-.37-1.15-.57-26.17-14.15-52.33-28.31-78.5-42.47-.15-.08-.3-.16-.45-.25-3.94-2.28-3.1-2.41-7.67-.05-47.2,24.44-93.59,50.38-140.35,75.63-1.99,1.08-3.08,2.36-2.6,4.69.11.54.05,1.11.05,1.67-.02,13.19-.04,26.37-.06,39.56,0,5.27,1.29,7.02,6.44,8.15,2.04.45,4.16.67,6.25.74,4.59.14,9.19.1,13.78.17,1.25.02,1.8-.71,2.29-1.71,2.31-4.65,2.92-9.49,2.21-14.65-.42-2.98-.55-6.11-.14-9.08.7-5.05,5.14-8.9,10.21-9.48,5.29-.61,10.16,2.07,12.33,6.78.04.08.07.16.1.24,3.74,8.5,3.71,7.12,2.72,18.69-.21,2.39-.2,4.8-.28,7.2-.04,1.29.63,1.88,1.9,1.88.94,0,1.89.03,2.83.03,14,0,28.01,0,42.01,0,.51,0,1.02,0,1.71,0-.5,1.56-.95,3.02-1.46,4.46-.07.19-.43.35-.68.4-.33.07-.68.02-1.03.02-13.45,0-26.89,0-40.34,0-1.28,0-2.56-.12-3.84-.22-.83-.07-1.36.16-1.32,1.1.25,7.2.25,14.44,1.89,21.51.25,1.07.94,2.04,1.42,3.06.3.64.83,1.28.86,1.94.18,3.69.26,7.38.31,11.07.02,1.07-.11,2.14-.27,3.2-.29,2.02-1.17,2.97-3.17,3.34-.92.17-1.88.19-2.82.19-7.77,0-15.55-.02-23.32-.07-1.28,0-2.58-.06-3.83-.31-1.61-.33-2.57-1.49-2.63-3.1-.18-4.29-.26-8.58-.32-12.87-.01-.8.1-1.66.38-2.41.27-.73.68-1.67,1.29-1.96,1.38-.65,1.72-1.77,2.03-3.03.77-3.03,1.81-6.02,2.28-9.09.56-3.75-.44-7.42-1.53-11.01-.33-1.1-1.22-1.34-2.24-1.34-3.44,0-6.87,0-10.31-.01-3.88,0-7.72-.32-11.45-1.49-5.82-1.83-8.5-5.16-8.78-11.27-.15-3.34.01-6.7.01-10.05,0-10.65,0-21.31-.01-31.96,0-.25-.03-.5-.06-.94-.61.33-1.12.61-1.63.89-9.99,5.34-19.98,10.69-29.98,16.02-.75.4-1.57.71-2.39.92-1.82.46-2.95-.15-3.4-1.98-.44-1.78-.82-3.62-.91-5.45-.84-17.21,6.3-30.16,21.36-38.39,6.57-3.59,13.65-6.24,20.47-9.38,22.37-10.28,44.17-21.64,65.3-34.28,4.99-2.98,9.89-6.16,13.54-10.77,2.47-3.12,4.71-6.45,6.79-9.85,4.81-7.88,9.48-15.84,15.09-23.2,7.59-9.95,16.97-17.57,28.74-22.07,4.14-1.58,8.41-2.72,12.82-3.28,2.04-.26,2.22-.41,2.21-2.5-.02-9.36-.1-18.73-.08-28.09,0-2.57.13-5.16.46-7.7.68-5.24,3.32-9.52,7.03-13.16,2.7-2.64,5.56-5.12,8.29-7.73,4.26-4.09,7.75-8.75,9.85-14.31,3.9-10.34,1.42-19.55-5.49-27.69-6.65-7.83-15.4-10.68-25.49-9.92-7.88.59-14.37,3.85-19.65,9.77-2.97,3.33-6.09,6.55-9.43,9.49-2.02,1.78-4.49,3.13-6.93,4.33-1.9.93-3.37.19-4.09-1.42-.54-1.2-.35-2.29.56-3.19.57-.57,1.23-1.1,1.93-1.49,3.84-2.14,6.99-5.08,10.06-8.18,3.05-3.08,6.1-6.18,9.39-8.98,4.98-4.24,11.01-5.99,17.42-6.64.5-.05,1-.16,1.51-.24,1.2,0,2.41,0,3.61,0Z"/><path class="cls-2" d="M317.11,245.83c4.78-2.48,9.27-4.8,13.76-7.13,1.03-.53,2.07-1.04,3.07-1.61.93-.53,1.75-.43,2.66.07,7.51,4.12,15.04,8.23,22.57,12.32,6.25,3.4,12.52,6.76,18.76,10.18.35.19.69.67.75,1.05.6,4.1.65,8.21.06,12.32-.1.71-.35,1.42-.65,2.08-.62,1.31-1.59,1.82-2.95,1.32-2.09-.76-4.21-1.53-6.15-2.58-8.94-4.85-17.83-9.81-26.74-14.72-.4-.22-.81-.43-1.45-.76,0,.66,0,1.11,0,1.56.12,11.42.25,22.85.37,34.27.04,4.05-.19,8.06-1.31,11.99-.77,2.68-2.44,4.48-4.88,5.65-3.52,1.68-7.31,2.19-11.15,2.3-4.38.12-8.76.06-13.14.08-2.48.01-2.77.25-3.28,2.64-.76,3.57-1.66,7.15-.94,10.83.73,3.75,1.56,7.49,4.09,10.56.99,1.2,1.38,2.59,1.34,4.19-.08,3.69-.02,7.39-.03,11.08,0,.69-.01,1.38-.12,2.05-.37,2.37-1.31,3.26-3.71,3.51-1.07.11-2.14.16-3.21.16-7.43.01-14.86,0-22.29,0-4.88,0-5.84-.96-6.04-5.82-.12-2.87-.45-5.75-.39-8.62.04-1.81.36-3.7,1-5.38,2.16-5.69,3.31-11.54,3.36-17.61.02-2.48,0-4.96,0-7.58h-88.97c-.03-.1-.06-.2-.09-.3,1.7-.94,3.46-1.77,5.07-2.84,2.25-1.5,4.65-1.82,7.3-1.81,23.84.07,47.68.04,71.52.04.94,0,1.89.07,2.82.16,1.88.19,2.43-.19,2.34-2.06-.14-2.74-.51-5.47-.64-8.21-.14-2.99-.49-6.04-.08-8.98.59-4.25,2.62-8.15,5.09-11.54,2.8-3.84,7.07-5.11,11.74-3.93,4.79,1.21,7.77,4.48,8.55,9.28.5,3.05.28,6.25.18,9.37-.15,4.91.32,9.68,2.21,14.27.41.99.99,1.61,2.07,1.6,5.67-.06,11.33-.12,17-.23.97-.02,1.95-.28,2.91-.52,4.16-1.04,6-3.21,6.34-7.5.09-1.15.12-2.32.12-3.48,0-12.89-.04-25.77.02-38.66,0-2.05-.77-3.48-2.42-4.5-1.09-.67-2.25-1.24-3.39-1.83-4.26-2.21-8.53-4.41-13.04-6.73Z"/></svg>